<?xml version="1.0" encoding="UTF-8"?>
<svg id="Layer_1" data-name="Layer 1" xmlns="http://www.w3.org/2000/svg" viewBox="0 0 376 512">
  <path d="M346,23.94h-72.83V10c0-5.52-4.48-10-10-10H112.83c-5.52,0-10,4.48-10,10v13.94H30C13.46,23.94,0,37.39,0,53.94V482c0,16.54,13.46,30,30,30H118.2c5.52,0,10-4.48,10-10s-4.48-10-10-10H30c-5.52,0-10-4.48-10-10V53.94c0-5.51,4.48-10,10-10H102.83v.81c0,17.23,14.02,31.25,31.25,31.25h107.83c17.23,0,31.25-14.02,31.25-31.25v-.81h72.84c5.52,0,10,4.49,10,10V429h-33c-16.54,0-30,13.46-30,30v33h-94.79c-5.52,0-10,4.48-10,10s4.48,10,10,10h104.79c2.65,0,5.2-1.05,7.07-2.93l63-63c1.88-1.88,2.93-4.42,2.93-7.07V53.94c0-16.54-13.46-30-30-30Zm-92.83,20.81c0,6.2-5.05,11.25-11.25,11.25h-107.84c-6.2,0-11.25-5.05-11.25-11.25V20H253.16v24.75h0Zm69.83,404.25h18.86l-28.86,28.86v-18.86c0-5.52,4.48-10,10-10Z"/>
  <path d="M93.95,315.51c-3.91-3.91-10.23-3.91-14.14,0-3.91,3.9-3.91,10.23,0,14.14l16.36,16.36c1.95,1.95,4.51,2.93,7.07,2.93s5.12-.98,7.07-2.93l38.05-38.05c3.91-3.91,3.91-10.24,0-14.14-3.91-3.9-10.24-3.9-14.14,0l-30.98,30.98-9.29-9.29Z"/>
  <path d="M187.63,348.81h50.78c5.52,0,10-4.48,10-10s-4.48-10-10-10h-50.78c-5.52,0-10,4.48-10,10s4.48,10,10,10Z"/>
  <path d="M289.2,288.81h-101.56c-5.52,0-10,4.48-10,10s4.48,10,10,10h101.56c5.52,0,10-4.48,10-10s-4.48-10-10-10Z"/>
  <path d="M79.8,422.65l16.36,16.36c1.95,1.95,4.51,2.93,7.07,2.93s5.12-.98,7.07-2.93l38.05-38.05c3.91-3.91,3.91-10.24,0-14.14s-10.23-3.9-14.14,0l-30.98,30.98-9.29-9.29c-3.91-3.91-10.24-3.91-14.14,0-3.9,3.91-3.9,10.24,0,14.14Z"/>
  <path d="M248.41,431.81c0-5.52-4.48-10-10-10h-50.78c-5.52,0-10,4.48-10,10s4.48,10,10,10h50.78c5.52,0,10-4.48,10-10Z"/>
  <path d="M187.63,401.81h101.56c5.52,0,10-4.48,10-10s-4.48-10-10-10h-101.56c-5.52,0-10,4.48-10,10s4.48,10,10,10Z"/>
  <path d="M158.21,492c-2.64,0-5.21,1.07-7.08,2.93-1.86,1.86-2.93,4.44-2.93,7.07s1.07,5.21,2.93,7.07c1.87,1.86,4.44,2.93,7.08,2.93s5.21-1.07,7.07-2.93,2.92-4.44,2.92-7.07-1.06-5.21-2.92-7.07-4.44-2.93-7.07-2.93Z"/>
  <path d="M93.91,129.57c-3.91-3.91-10.23-3.91-14.14,0-3.91,3.9-3.91,10.23,0,14.14l16.36,16.36c1.95,1.95,4.51,2.93,7.07,2.93s5.12-.98,7.07-2.93l38.05-38.05c3.91-3.91,3.91-10.24,0-14.14-3.91-3.9-10.24-3.9-14.14,0l-30.98,30.98-9.29-9.29Z"/>
  <path d="M187.6,162.87h50.78c5.52,0,10-4.48,10-10s-4.48-10-10-10h-50.78c-5.52,0-10,4.48-10,10s4.48,10,10,10Z"/>
  <path d="M289.16,102.87h-101.56c-5.52,0-10,4.48-10,10s4.48,10,10,10h101.56c5.52,0,10-4.48,10-10s-4.48-10-10-10Z"/>
  <path d="M79.77,236.71l16.36,16.36c1.95,1.95,4.51,2.93,7.07,2.93s5.12-.98,7.07-2.93l38.05-38.05c3.91-3.91,3.91-10.24,0-14.14s-10.23-3.9-14.14,0l-30.98,30.98-9.29-9.29c-3.91-3.91-10.24-3.91-14.14,0-3.9,3.91-3.9,10.24,0,14.14Z"/>
  <path d="M248.38,245.87c0-5.52-4.48-10-10-10h-50.78c-5.52,0-10,4.48-10,10s4.48,10,10,10h50.78c5.52,0,10-4.48,10-10Z"/>
  <path d="M187.6,215.87h101.56c5.52,0,10-4.48,10-10s-4.48-10-10-10h-101.56c-5.52,0-10,4.48-10,10s4.48,10,10,10Z"/>
</svg>